# xmcd CD database file
#
# Track frame offsets:
#	187
#	19097
#	44992
#	69452
#	91952
#	111667
#	126192
#	145667
#	157992
#
# Disc length: 2294 seconds
#
# Revision: 0
# Processed by: cddbd v1.4PL0 Copyright (c) Steve Scherf et al.
# Submitted via: CDex 1.50
#
DISCID=7f08f409
DTITLE=Oscar Peterson - The Oscar Peterson Trio Plays
DYEAR=1963
DGENRE=Jazz
TTITLE0=The Strut
TTITLE1=Let's Fall in Love
TTITLE2=Satin Doll
TTITLE3=Little Right Foot
TTITLE4=Little Darlin'
TTITLE5=Fly Me to the Moon
TTITLE6=This nearly was mine
TTITLE7=Shiny Stockings
TTITLE8=You Stepped out of a Dream
EXTD=YEAR: 1963
EXTT0=
EXTT1=
EXTT2=
EXTT3=
EXTT4=
EXTT5=
EXTT6=
EXTT7=
EXTT8=
PLAYORDER=
